{
  "accessors": [
    {
      "bufferView": 2,
      "componentType": 5126,
      "count": 59050,
      "max": [
        216,
        216,
        -0
      ],
      "min": [
        -216,
        -216,
        -217.54600524902344
      ],
      "type": "VEC3"
    },
    {
      "bufferView": 2,
      "byteOffset": 708600,
      "componentType": 5126,
      "count": 59050,
      "max": [
        1,
        1,
        1
      ],
      "min": [
        -1,
        -1,
        -1
      ],
      "type": "VEC3"
    },
    {
      "bufferView": 3,
      "componentType": 5126,
      "count": 59050,
      "max": [
        1,
        1,
        0.90361791849136353,
        1
      ],
      "min": [
        -1,
        -1,
        -0.90361791849136353,
        1
      ],
      "type": "VEC4"
    },
    {
      "bufferView": 1,
      "componentType": 5126,
      "count": 59050,
      "max": [
        0.99443244934082031,
        0.99442338943481445
      ],
      "min": [
        0.0019298389088362455,
        0.0040517719462513924
      ],
      "type": "VEC2"
    },
    {
      "bufferView": 1,
      "byteOffset": 472400,
      "componentType": 5126,
      "count": 59050,
      "max": [
        0.99443244934082031,
        0.99442338943481445
      ],
      "min": [
        0.0019298389088362455,
        0.0040517719462513924
      ],
      "type": "VEC2"
    },
    {
      "bufferView": 1,
      "byteOffset": 944800,
      "componentType": 5126,
      "count": 59050,
      "max": [
        432,
        432
      ],
      "min": [
        -432,
        -442.37298583984375
      ],
      "type": "VEC2"
    },
    {
      "bufferView": 0,
      "componentType": 5125,
      "count": 90486,
      "max": [
        59049
      ],
      "min": [
        0
      ],
      "type": "SCALAR"
    }
  ],
  "asset": {
    "extras": {
      "author": "whitewashstudio (https://sketchfab.com/whitewashstudio)",
      "license": "CC-BY-4.0 (http://creativecommons.org/licenses/by/4.0/)",
      "source": "https://sketchfab.com/3d-models/vr-gallery-light-baked-625f8c2d2d4448c590aae1ce659f6f91",
      "title": "VR Gallery - Light Baked"
    },
    "generator": "Sketchfab-8.33.0",
    "version": "2.0"
  },
  "bufferViews": [
    {
      "buffer": 0,
      "byteLength": 361944,
      "byteOffset": 0,
      "name": "floatBufferViews",
      "target": 34963
    },
    {
      "buffer": 0,
      "byteLength": 1417200,
      "byteOffset": 361944,
      "byteStride": 8,
      "name": "floatBufferViews",
      "target": 34962
    },
    {
      "buffer": 0,
      "byteLength": 1417200,
      "byteOffset": 1779144,
      "byteStride": 12,
      "name": "floatBufferViews",
      "target": 34962
    },
    {
      "buffer": 0,
      "byteLength": 944800,
      "byteOffset": 3196344,
      "byteStride": 16,
      "name": "floatBufferViews",
      "target": 34962
    }
  ],
  "buffers": [
    {
      "byteLength": 4141144,
      "uri": "scene.bin"
    }
  ],
  "images": [
    {
      "uri": "textures/Joined_baseColor.png"
    },
    {
      "uri": "textures/Joined_normal.png"
    }
  ],
  "materials": [
    {
      "doubleSided": true,
      "emissiveFactor": [
        0,
        0,
        0
      ],
      "name": "Joined",
      "normalTexture": {
        "index": 1,
        "scale": 1,
        "texCoord": 1
      },
      "pbrMetallicRoughness": {
        "baseColorFactor": [
          1,
          1,
          1,
          1
        ],
        "baseColorTexture": {
          "index": 0,
          "texCoord": 0
        },
        "metallicFactor": 0,
        "roughnessFactor": 0.59999999999999998
      }
    }
  ],
  "meshes": [
    {
      "primitives": [
        {
          "attributes": {
            "NORMAL": 1,
            "POSITION": 0,
            "TANGENT": 2,
            "TEXCOORD_0": 3,
            "TEXCOORD_1": 4,
            "TEXCOORD_2": 5
          },
          "indices": 6,
          "material": 0,
          "mode": 4
        }
      ]
    }
  ],
  "nodes": [
    {
      "children": [
        1
      ],
      "name": "RootNode (gltf orientation matrix)",
      "rotation": [
        -0.70710678118654746,
        -0,
        -0,
        0.70710678118654757
      ]
    },
    {
      "children": [
        2
      ],
      "name": "RootNode (model correction matrix)"
    },
    {
      "children": [
        3
      ],
      "name": "root"
    },
    {
      "children": [
        4
      ],
      "matrix": [
        1,
        0,
        0,
        0,
        0,
        2.2204460492503131e-16,
        1,
        0,
        0,
        -1,
        2.2204460492503131e-16,
        0,
        0,
        0,
        0,
        1
      ],
      "name": "GLTF_SceneRootNode"
    },
    {
      "children": [
        5
      ],
      "matrix": [
        0.029999971389770508,
        0,
        0,
        0,
        0,
        -5.0576170846204493e-09,
        0.029999971389770081,
        0,
        0,
        -0.029999971389770081,
        -5.0576170846204493e-09,
        0,
        0,
        0,
        0,
        1
      ],
      "name": "VR Gallery_0"
    },
    {
      "mesh": 0,
      "name": ""
    }
  ],
  "samplers": [
    {
      "magFilter": 9729,
      "minFilter": 9987,
      "wrapS": 10497,
      "wrapT": 10497
    }
  ],
  "scene": 0,
  "scenes": [
    {
      "name": "OSG_Scene",
      "nodes": [
        0
      ]
    }
  ],
  "textures": [
    {
      "sampler": 0,
      "source": 0
    },
    {
      "sampler": 0,
      "source": 1
    }
  ]
}

